<svg width="340" height="131" viewBox="0 0 340 131" fill="none" xmlns="http://www.w3.org/2000/svg">
<path d="M54.306 103.016C84.42 103.016 105.714 81.596 107.226 51.482V49.088H36.036L34.02 56.648H97.524C94.374 79.58 77.742 95.204 54.81 95.204C27.468 95.204 12.348 76.052 13.482 51.86C14.742 27.668 31.878 8.516 57.96 8.516C78.246 8.516 93.366 20.36 96.39 36.992H106.092C102.816 16.076 84.168 0.703992 58.464 0.703992C26.838 0.703992 5.544 23.636 4.032 51.86C2.646 80.21 21.294 103.016 54.306 103.016ZM104.78 101H126.326L127.46 93.44H114.734L127.964 2.72H119.27L104.78 101ZM130.251 101H139.071L153.561 2.72H144.741L130.251 101ZM144.77 101H189.374C219.614 101 240.656 82.352 243.05 52.742C245.822 17.588 220.118 2.72 192.146 2.72H159.26L144.77 101ZM154.724 93.44L166.946 10.28H190.76C215.33 10.28 236.372 22.754 233.474 53.372C231.332 75.548 215.33 93.44 190.76 93.44H154.724ZM277.668 10.28L278.676 2.72H255.114L240.624 101H264.816L265.95 93.44H250.578L257.256 48.206H270.99L272.124 40.646H258.39L262.8 10.28H277.668ZM288.472 101H297.04L296.158 49.088C302.458 46.064 306.238 39.134 307.876 29.306C310.396 14.438 307.876 2.72 293.638 2.72H282.676L268.186 101H277.006L284.314 50.6H287.59L288.472 101ZM285.448 43.04L290.236 10.28H290.74C299.938 10.28 301.324 14.186 298.804 29.18C296.914 40.52 293.386 43.04 287.968 43.04H285.448ZM314.164 102.26C325.378 102.26 328.78 93.314 328.78 84.872C328.78 81.092 327.142 69.626 326.386 64.712L321.346 28.928C320.842 25.526 320.212 20.864 320.212 17.714C320.212 12.8 321.346 8.76799 326.386 8.76799C329.284 8.76799 331.048 10.658 331.048 13.304C331.048 14.312 330.922 14.942 330.796 16.076L326.764 43.544H335.08L339.112 16.076C339.238 15.068 339.364 14.06 339.364 12.926C339.364 5.74399 334.702 1.46 327.268 1.46C315.802 1.46 311.896 9.65 311.896 17.336C311.896 21.62 312.274 25.274 312.778 28.928L318.7 70.256C319.582 76.43 320.212 80.966 320.212 84.872C320.212 86.384 320.212 87.518 319.834 89.786C319.204 93.44 317.314 94.952 314.542 94.952C312.022 94.952 310.006 93.566 310.006 90.164C310.006 89.66 310.006 88.904 310.258 87.14L313.66 63.2H305.47L301.816 87.392C301.69 88.4 301.564 89.408 301.564 90.29C301.564 97.598 305.722 102.26 314.164 102.26Z" fill="white"/>
</svg>
